# xmcd
#
# Track frame offsets: 
#        150
#        18056
#        31995
#        89651
#        121552
#        136906
#        147032
#        157515
#        171747
#        185409
#
# Disc length: 2583 seconds
#
# Revision: 0
# Processed by: cddbd v1.5.2PL0 Copyright (c) Steve Scherf et al.
# Submitted via: ExactAudioCopy v0.99pb5
#
DISCID=740a150a
DTITLE=Various Artist - Best of the Blues, Disk 3
DYEAR=2008
DGENRE=
TTITLE0=House Rent Boogie - John Lee Hooker
TTITLE1=Woman Blues - Buddy Guy and Junior Wells
TTITLE2=All Blues - George Benson
TTITLE3=Between a Hard Place and the Ground - Mike Bloomfield
TTITLE4=Strange Fruit - Billie Holiday
TTITLE5=I Don't Know Where I've Been - Bo Diddley
TTITLE6=Why I Sing the Blues - B.B. King
TTITLE7=Crying My Heart Out for You - Ella Fitzgerald
TTITLE8=Blues on my Weary Mind - Dinah Washington
TTITLE9=Baby Please Don't Go - Big Joe Williams
EXTD=
EXTT0=
EXTT1=
EXTT2=
EXTT3=
EXTT4=
EXTT5=
EXTT6=
EXTT7=
EXTT8=
EXTT9=
PLAYORDER=
